<?xml version="1.0" encoding="iso-8859-1"?>
<!-- Generator: Adobe Illustrator 19.0.0, SVG Export Plug-In . SVG Version: 6.00 Build 0)  -->
<svg version="1.1" id="Capa_1" xmlns="http://www.w3.org/2000/svg" xmlns:xlink="http://www.w3.org/1999/xlink" x="0px" y="0px"
	 viewBox="0 0 512 512" style="enable-background:new 0 0 512 512;" xml:space="preserve">
<circle style="fill:#E6EFF4;" cx="256" cy="256" r="256"/>
<path style="fill:#B6D1DD;" d="M395.873,116.127c-12.899-12.899-30.72-20.878-50.403-20.878H166.529
	c-39.368,0-71.281,31.913-71.281,71.281v178.941c0,19.683,7.978,37.504,20.878,50.403l114.912,114.913
	C239.253,511.581,247.577,512,256,512c141.385,0,256-114.615,256-256c0-8.422-0.419-16.747-1.214-24.961L395.873,116.127z"/>
<path style="fill:#41A0D7;" d="M345.47,416.751H166.53c-39.368,0-71.281-31.913-71.281-71.281V166.53
	c0-39.368,31.913-71.281,71.281-71.281h178.941c39.368,0,71.281,31.913,71.281,71.281v178.941
	C416.751,384.838,384.838,416.751,345.47,416.751z"/>
<path style="fill:#FFFFFF;" d="M253.211,165.58c-53.925,0-97.641,40.263-97.641,89.928c0,26.19,12.16,49.761,31.559,66.197
	l2.557,36.225c0.075,1.057,0.688,2.003,1.625,2.501s2.063,0.48,2.982-0.047l32.038-18.4c8.54,2.248,17.557,3.453,26.88,3.453
	c53.925,0,97.641-40.263,97.641-89.929C350.851,205.842,307.136,165.579,253.211,165.58z"/>
<g>
	<polygon style="fill:#C8E6EB;" points="181.058,389.247 176.321,373.354 182.926,371.385 185.219,379.08 192.249,375.2 
		195.579,381.235 	"/>
	<path style="fill:#C8E6EB;" d="M204.339,376.402l-3.33-6.035l21.517-11.872l1.293,0.304c0.555,0.132,1.114,0.259,1.673,0.382
		l-1.172,5.312l0.374,0.678l-0.598,0.33l-0.091,0.411c-0.156-0.034-0.31-0.069-0.466-0.103L204.339,376.402z M253.211,369.079
		c-6.398,0-12.826-0.451-19.104-1.339l0.966-6.825c7.971,1.129,16.227,1.508,24.298,1.127l0.326,6.884
		C257.552,369.027,255.369,369.079,253.211,369.079z M269.919,368.057l-0.843-6.84c8.082-0.997,16.064-2.771,23.723-5.274
		l2.141,6.552C286.859,365.135,278.44,367.006,269.919,368.057z M173.405,363.567l-7.142-23.969l6.605-1.969l7.142,23.969
		L173.405,363.567z M304.569,358.925l-2.649-6.364c7.517-3.129,14.707-7.007,21.372-11.525l3.868,5.706
		C320.112,351.52,312.512,355.618,304.569,358.925z M335.431,340.62l-4.326-5.365c6.354-5.122,12.122-10.882,17.144-17.119
		l5.368,4.323C348.286,329.08,342.167,335.19,335.431,340.62z M162.188,332.788c-6.188-6.062-11.674-12.751-16.305-19.881
		l5.781-3.754c4.356,6.708,9.519,13.003,15.347,18.713L162.188,332.788z M359.72,314.154l-5.731-3.829
		c4.519-6.765,8.227-13.993,11.022-21.48l6.458,2.409C368.488,299.24,364.535,306.945,359.72,314.154z M140.666,304.008
		c-4.034-7.666-7.141-15.759-9.237-24.052l6.683-1.689c1.962,7.767,4.874,15.347,8.654,22.531L140.666,304.008z M374.611,281.422
		l-6.658-1.783c2.08-7.77,3.22-15.799,3.389-23.866l6.89,0.144C378.051,264.538,376.833,273.118,374.611,281.422z M129.384,269.827
		c-0.81-5.324-1.221-10.77-1.221-16.188c0-3.19,0.143-6.412,0.423-9.573l6.866,0.609c-0.263,2.961-0.397,5.976-0.397,8.964
		c0,5.072,0.384,10.17,1.142,15.152L129.384,269.827z M371.085,246.109c-0.599-8.029-2.17-15.989-4.67-23.659l6.553-2.137
		c2.671,8.197,4.351,16.704,4.99,25.285L371.085,246.109z M136.771,235.104l-6.774-1.269c1.577-8.422,4.181-16.689,7.739-24.572
		l6.282,2.835C140.686,219.48,138.248,227.221,136.771,235.104z M362.982,213.407c-3.185-7.328-7.264-14.359-12.123-20.896
		l5.532-4.112c5.172,6.959,9.516,14.448,12.911,22.258L362.982,213.407z M148.406,203.472l-5.991-3.406
		c4.203-7.394,9.298-14.389,15.142-20.791l5.09,4.647C157.149,189.945,152.356,196.523,148.406,203.472z M344.739,184.994
		c-5.325-5.984-11.359-11.462-17.937-16.28l4.072-5.559c6.97,5.104,13.367,10.911,19.014,17.258L344.739,184.994z M169.495,177.042
		l-4.673-5.066c6.251-5.766,13.177-10.933,20.587-15.355l3.532,5.92C181.939,166.718,175.396,171.597,169.495,177.042z
		 M318.734,163.299c-6.864-4.21-14.219-7.763-21.863-10.557l2.366-6.473c8.075,2.951,15.847,6.705,23.101,11.155L318.734,163.299z
		 M197.483,157.898l-3.044-6.182c7.636-3.76,15.715-6.789,24.013-9l1.775,6.66C212.367,151.47,204.714,154.338,197.483,157.898z
		 M287.609,149.762c-7.763-2.166-15.815-3.597-23.932-4.253l0.554-6.87c8.555,0.69,17.045,2.199,25.231,4.484L287.609,149.762z
		 M229.723,147.234l-1.256-6.777c8.092-1.5,16.416-2.261,24.744-2.261l0.766,0.002l-0.026,6.892l-0.739-0.002
		C245.302,145.089,237.4,145.812,229.723,147.234z"/>
</g>
<g>
</g>
<g>
</g>
<g>
</g>
<g>
</g>
<g>
</g>
<g>
</g>
<g>
</g>
<g>
</g>
<g>
</g>
<g>
</g>
<g>
</g>
<g>
</g>
<g>
</g>
<g>
</g>
<g>
</g>
</svg>
